<svg version="1" xmlns="http://www.w3.org/2000/svg" width="346.667" height="346.667" viewBox="0 0 260.000000 260.000000"><path d="M129 7.1c0 .5-4.4.9-9.7.9-9.4 0-17.3 1.3-17.3 2.8 0 .8-7.1 3.2-9.5 3.2-.8 0-1.5.9-1.5 1.9 0 1.3-.9 2.1-3 2.6-1.6.4-3 1.3-3 2.1s-.5 1.4-1.1 1.4c-.6 0-1.6.6-2.4 1.2-.7.7-3.4 3.1-6 5.3-4.2 3.6-8 7.2-12 11.6-.8.9-1.5 2-1.5 2.5 0 .6-.9 1.9-1.9 3.1-2.5 2.6-5 10-5.6 16.6C53.7 71 52.8 75 51.8 75c-.7 0-.7.4-.1 1.2 1.5 2 2.4 12.3 1.3 15.2-.7 2-.6 2.7.7 3.4 1.2.7 1.4 1.8 1 4-.4 1.7-.2 4.4.3 5.9.4 1.5 1.1 4.9 1.4 7.5.5 4.6.5 4.8-2 4.8-1.7 0-2.8.7-3.1 2-.3 1.1-1 2-1.5 2s-.7 2.2-.3 5.2c1.1 9.7 1.7 12.8 2.7 12.8.5 0 .6.5.2 1.1-.3.6-.1 1.5.6 1.9.7.5 1.3 2.2 1.2 3.9 0 1.7.6 4.4 1.4 5.9.7 1.5 1.4 3.6 1.4 4.6 0 2.2 4.7 7.6 6.6 7.6 3.8 0 6.2 2.3 6.9 6.5.3 2.4 1.2 4.6 2 4.9.8.3 1.5 1.6 1.5 2.9 0 1.3.4 2.7.9 3.3 1.6 1.7 4 11.8 3.5 15.1-.2 1.8.1 3.3.6 3.3 1.3 0 1.3 2.7 0 3.2-.8.3-.4 3.2 1.5 9.4.6 1.9.1 2.4-3.6 3.6-4.5 1.5-4.8 2-6.6 11-.3 1.6-.9 2.8-1.4 2.8-.4 0-.8 1.7-.7 3.8 0 2.2-.5 4.8-1.1 6-.6 1.1-.8 3.4-.5 5.1.4 1.8.2 3.1-.3 3.1-.6 0-.8 1-.6 2.3.5 2.5-.6 3.2-11.2 7.3l-6 2.3h103c89.7 0 102.8-.1 101.1-1.4-1-.8-2.3-1.2-2.7-.9-.5.3-.9 0-.9-.6s-.8-1-1.8-.8c-1.1.2-2.7-.3-3.6-1.1-1-.8-3.3-1.5-5.2-1.5-1.9-.1-3.4-.6-3.4-1.1 0-.6-3.4-1.6-7.6-2.3-4.2-.6-8.2-1.6-8.8-2.1-1.8-1.4-13.4-4-15.5-3.4-1.2.3-2.1.1-2.1-.6 0-.6-.6-1.1-1.4-1.1-1.4 0-3.1-2.7-2.7-4.3.1-.5-.9-2.9-2.2-5.5-1.3-2.6-3.9-7.9-5.6-11.7-1.8-3.9-3.7-7.8-4.2-8.7-.5-1-.5-3.8.1-6.9.6-2.8 1-7.5 1-10.4 0-5.2 1.4-14.6 3-20 .5-1.7 1.4-5.1 2.1-7.8 1-4 1.5-4.7 3.6-4.7 1.4 0 4-.7 5.7-1.5 3.7-1.8 4.7-4.9 6.6-19.8.5-4.3 1.4-8.7 2-9.7.5-1 1.3-4.3 1.6-7.4.8-6.3-1-9.6-5.1-9.6-2.2 0-2.3-.2-2.1-11 0-6 .4-11 .7-11 .6 0 .2-20.1-.7-27.7-.3-3.1-1.1-5.3-2-5.7-.8-.3-1.4-1.4-1.4-2.4s-.9-2.8-2.1-4c-1.1-1.3-1.9-2.8-1.6-3.5.4-1.3-1.6-3.7-3-3.7-.5 0-1.5-1.6-2.2-3.5-.7-1.9-1.6-3.5-2.1-3.5s-1.1-1.4-1.5-3.1c-.4-1.9-1.5-3.3-2.6-3.6-1-.3-1.9-1.2-1.9-1.9 0-.8-.7-1.4-1.6-1.4-1.1 0-1.5-.6-1.1-2 .3-1.2 0-2-.8-2-.7 0-1.8-.6-2.4-1.4-.7-.8-2.1-1.2-3.1-.9-1.4.4-2 0-2-1s-.7-1.5-1.9-1.2c-1.1.2-2.2-.2-2.4-.9-.3-.6-4.8-3.3-10-5.9-7.8-3.9-10.8-4.8-15.9-5.1-3.5-.2-7.8-.8-9.5-1.4-2-.6-3.3-.7-3.3-.1z"/></svg>